<svg xmlns="http://www.w3.org/2000/svg" width="180" height="180" viewBox="0 0 180 180" role="img" aria-label="GymPWA">
  <rect width="180" height="180" rx="40" fill="#000000"/>
  <svg x="18" y="18" width="144" height="144" viewBox="0 0 2048 2048" preserveAspectRatio="xMidYMid meet">
    <g transform="translate(0,2048) scale(0.1,-0.1)" fill="#39FF14" stroke="none">
      <path d="M3245 20469 c-995 -88 -1889 -571 -2498 -1351 -353 -452 -598 -1005 -693 -1566 -58 -342 -54 148 -54 -7292 0 -4667 3 -6879 10 -6971 22 -278 79 -582 155 -829 116 -379 348 -805 630 -1157 176 -220 502 -517 760 -692 405 -275 905 -481 1349 -556 358 -60 -171 -56 7416 -53 l6935 3 151 23 c509 74 936 225 1366 483 467 280 908 716 1183 1168 306 503 473 1025 515 1606 8 106 10 2157 8 7055 l-3 6905 -22 150 c-114 774 -405 1397 -915 1956 -500 547 -1237 949 -1971 1073 -317 54 289 50 -7272 52 -3937 1 -6993 -2 -7050 -7z m2015 -7310 c0 -3 -16 -21 -36 -40 -96 -91 -230 -338 -324 -593 -169 -460 -275 -1010 -332 -1721 -16 -202 -16 -935 0 -1150 63 -833 242 -1595 479 -2035 57 -105 112 -189 171 -258 l45 -54 -194 4 c-192 3 -195 3 -252 32 -305 155 -596 887 -721 1819 -120 889 -90 1825 84 2637 134 622 317 1055 532 1256 74 69 123 96 193 105 60 7 355 6 355 -2z m740 0 c0 -3 -14 -18 -31 -35 -76 -72 -202 -290 -278 -481 -180 -455 -298 -1033 -358 -1758 -22 -264 -25 -993 -5 -1250 80 -1042 320 -1909 630 -2273 l45 -54 -194 4 c-176 3 -198 5 -234 24 -403 216 -724 1242 -796 2549 -30 548 27 1331 137 1860 170 815 429 1337 702 1411 47 13 382 16 382 3z m8910 -20 c322 -152 607 -887 734 -1894 54 -432 60 -532 60 -1005 0 -474 -8 -610 -59 -1010 -95 -739 -266 -1316 -491 -1656 -59 -89 -171 -201 -236 -236 -40 -21 -58 -23 -241 -26 l-198 -4 58 70 c236 281 446 911 552 1657 140 978 106 2033 -94 2930 -117 520 -269 902 -449 1123 l-63 77 186 0 c179 0 188 -1 241 -26z m741 4 c154 -69 313 -295 449 -636 85 -216 179 -567 245 -917 74 -392 122 -1036 112 -1500 -19 -840 -148 -1592 -369 -2150 -117 -298 -282 -532 -423 -600 -47 -23 -63 -25 -242 -28 -111 -2 -193 0 -193 5 0 5 11 20 25 33 45 42 146 199 206 320 226 454 380 1122 451 1965 20 235 17 1000 -5 1255 -90 1042 -318 1847 -625 2205 l-52 60 83 6 c157 10 289 3 338 -18z m-9106 -13 c67 -32 179 -147 237 -245 127 -214 263 -607 342 -990 69 -333 146 -925 146 -1122 l0 -53 -110 0 -109 0 -5 33 c-3 17 -13 118 -21 222 -32 372 -69 610 -136 878 -126 501 -295 768 -472 744 -227 -31 -455 -603 -557 -1397 -167 -1300 39 -2849 430 -3240 83 -84 149 -99 239 -54 123 61 257 321 350 674 73 281 132 676 159 1070 l7 105 114 3 114 3 -7 -123 c-25 -447 -119 -1036 -221 -1392 -112 -391 -240 -658 -385 -806 -96 -98 -131 -115 -235 -115 -100 0 -148 21 -230 103 -268 266 -487 911 -599 1767 -162 1237 -8 2719 364 3501 106 224 225 375 343 434 54 28 70 31 127 28 42 -2 83 -12 115 -28z m7625 7 c89 -43 201 -162 282 -300 116 -198 258 -598 327 -917 60 -281 118 -675 146 -995 22 -244 31 -863 16 -1130 -28 -502 -110 -1077 -202 -1410 -158 -573 -354 -936 -559 -1038 -63 -32 -158 -37 -217 -12 -246 103 -487 622 -627 1355 -53 277 -99 644 -121 973 l-7 97 114 0 115 0 12 -157 c58 -756 199 -1325 394 -1589 80 -109 162 -150 249 -125 57 17 150 111 208 211 167 285 299 833 357 1485 28 310 25 1057 -5 1365 -77 781 -238 1339 -450 1562 -155 163 -302 98 -446 -197 -149 -303 -247 -760 -302 -1397 l-17 -198 -115 0 -114 0 6 93 c43 592 139 1157 263 1542 113 351 223 565 356 693 89 85 152 114 237 109 36 -1 81 -11 100 -20z m-10009 -584 c-44 -88 -153 -467 -201 -703 -54 -265 -109 -664 -142 -1030 -20 -224 -17 -995 5 -1230 67 -718 177 -1257 342 -1682 7 -17 -3 -18 -114 -18 -143 0 -169 8 -241 76 -221 206 -402 840 -475 1659 -22 244 -30 747 -16 1000 55 1002 292 1813 566 1941 44 21 65 24 173 24 l122 0 -19 -37z m12410 26 c184 -63 363 -437 473 -989 127 -633 162 -1335 101 -1995 -83 -892 -296 -1559 -537 -1679 -47 -24 -63 -26 -176 -26 -115 0 -124 1 -116 18 29 64 131 393 164 526 77 314 142 741 180 1181 18 205 24 845 11 1072 -29 483 -97 970 -185 1329 -41 166 -126 450 -155 517 -12 27 -21 51 -21 53 0 9 230 3 261 -7z m-13251 -534 c0 -3 -11 -42 -24 -87 -246 -850 -281 -2123 -85 -3083 17 -82 48 -216 68 -297 l38 -148 -121 0 c-102 0 -126 3 -164 21 -232 113 -422 915 -422 1789 0 766 150 1511 348 1722 73 79 97 87 240 88 67 0 122 -2 122 -5z m14127 -16 c113 -55 202 -230 288 -564 180 -703 182 -1709 5 -2430 -81 -330 -171 -514 -283 -579 -40 -24 -53 -26 -165 -26 -67 0 -122 2 -122 6 0 3 13 55 30 117 228 864 261 2041 84 2987 -27 144 -95 437 -113 483 l-11 27 122 0 c103 0 128 -3 165 -21z m-10930 -638 c96 -44 202 -264 253 -526 31 -164 48 -147 -144 -144 -189 4 -189 4 -226 -82 -79 -184 -95 -464 -39 -682 21 -84 57 -165 83 -186 11 -9 61 -12 185 -11 l171 1 -6 -33 c-60 -360 -177 -616 -295 -648 -300 -81 -504 977 -344 1776 57 284 159 496 260 540 40 18 53 17 102 -5z m7559 -2 c127 -61 241 -366 289 -774 23 -189 23 -561 0 -750 -41 -353 -127 -623 -231 -730 -106 -110 -210 -71 -304 115 -41 80 -96 250 -119 367 -33 159 -47 144 137 143 86 -1 162 -1 169 0 22 0 64 68 88 139 53 155 68 392 35 551 -21 100 -62 212 -90 243 l-28 31 -167 -3 -168 -3 7 49 c20 143 77 334 133 448 52 107 90 153 148 180 40 19 52 18 101 -6z m-11686 -1150 l0 -261 -126 4 -126 3 -28 32 c-45 51 -63 128 -58 247 6 115 25 173 70 211 28 24 36 25 149 25 l119 0 0 -261z m11534 233 c40 -77 47 -329 12 -439 l-17 -53 -3674 0 c-3489 0 -3675 1 -3684 18 -50 95 -41 460 12 494 7 4 1660 8 3674 8 l3662 0 15 -28z m4430 7 c87 -69 110 -298 43 -428 -13 -25 -34 -52 -48 -58 -15 -8 -68 -13 -141 -13 l-117 0 0 260 0 260 118 0 c105 0 121 -2 145 -21z"/>
    </g>
  </svg>
</svg>
